<svg viewBox="0 0 649 60" xmlns="http://www.w3.org/2000/svg"><defs><linearGradient x1="100%" y1="50%" x2="1.029%" y2="50%" id="a"><stop stop-color="#FFF" offset="0%"/><stop stop-color="#C2D6C8" offset="100%"/></linearGradient><linearGradient x1="0%" y1="50%" x2="99.834%" y2="50%" id="b"><stop stop-color="#FFF" offset="0%"/><stop stop-color="#C2D6C8" offset="100%"/></linearGradient></defs><g transform="translate(0 -20)" fill="none" fill-rule="evenodd"><path d="M321.94 79v-9.63h-24.48c0-1.44.33-2.745.99-3.915.66-1.17 1.56-2.325 2.7-3.465 1.14-1.14 2.475-2.31 4.005-3.51 1.53-1.2 3.165-2.52 4.905-3.96 1.44-1.2 2.85-2.46 4.23-3.78a30.56 30.56 0 0 0 3.69-4.23c1.08-1.5 1.95-3.12 2.61-4.86.66-1.74.99-3.63.99-5.67 0-1.92-.36-3.795-1.08-5.625-.72-1.83-1.83-3.465-3.33-4.905-1.5-1.44-3.42-2.595-5.76-3.465-2.34-.87-5.13-1.305-8.37-1.305-2.7 0-5.1.315-7.2.945-2.1.63-3.93 1.455-5.49 2.475s-2.88 2.145-3.96 3.375-1.98 2.445-2.7 3.645l7.92 5.67c.42-.72.945-1.47 1.575-2.25s1.38-1.5 2.25-2.16c.87-.66 1.86-1.2 2.97-1.62 1.11-.42 2.355-.63 3.735-.63 1.56 0 2.85.21 3.87.63 1.02.42 1.845.945 2.475 1.575.63.63 1.08 1.365 1.35 2.205.27.84.405 1.65.405 2.43 0 1.26-.225 2.37-.675 3.33-.45.96-1.125 1.905-2.025 2.835-.9.93-1.995 1.905-3.285 2.925-1.29 1.02-2.775 2.25-4.455 3.69-1.68 1.44-3.36 2.91-5.04 4.41a37.352 37.352 0 0 0-4.59 4.905 24.884 24.884 0 0 0-3.375 5.805c-.87 2.1-1.305 4.44-1.305 7.02V79h36.45zm25.51 0c.6-2.28 1.395-4.86 2.385-7.74.99-2.88 2.085-5.865 3.285-8.955 1.2-3.09 2.445-6.18 3.735-9.27s2.565-6 3.825-8.73c1.26-2.73 2.445-5.175 3.555-7.335 1.11-2.16 2.055-3.87 2.835-5.13V22.3h-36.72v9.99h25.83c-1.2 1.92-2.7 4.68-4.5 8.28-1.8 3.6-3.66 7.575-5.58 11.925a315.43 315.43 0 0 0-5.58 13.5c-1.8 4.65-3.33 8.985-4.59 13.005h11.52zM214.652 37v-1.08h-8.088c0-.64.16-1.204.48-1.692.32-.488.784-.996 1.392-1.524.304-.272.632-.548.984-.828.352-.28.736-.588 1.152-.924.496-.4.972-.8 1.428-1.2.456-.4.864-.82 1.224-1.26.36-.44.648-.916.864-1.428.216-.512.324-1.08.324-1.704 0-.544-.092-1.052-.276-1.524a3.333 3.333 0 0 0-.84-1.236c-.376-.352-.844-.632-1.404-.84-.56-.208-1.208-.312-1.944-.312-.656 0-1.236.084-1.74.252-.504.168-.94.376-1.308.624a4.832 4.832 0 0 0-.924.792c-.248.28-.444.54-.588.78l.864.6c.16-.208.344-.428.552-.66.208-.232.456-.444.744-.636a4.156 4.156 0 0 1 1.02-.48c.392-.128.86-.192 1.404-.192.544 0 1.016.076 1.416.228.4.152.732.356.996.612s.46.552.588.888c.128.336.192.696.192 1.08 0 .48-.096.936-.288 1.368a5.727 5.727 0 0 1-.78 1.26c-.328.408-.712.812-1.152 1.212-.44.4-.908.8-1.404 1.2-.288.24-.58.476-.876.708-.296.232-.58.468-.852.708-.704.592-1.3 1.22-1.788 1.884a3.732 3.732 0 0 0-.732 2.268V37h9.36zm7.68.384c.848 0 1.604-.124 2.268-.372.664-.248 1.224-.588 1.68-1.02a4.331 4.331 0 0 0 1.044-1.536c.24-.592.36-1.224.36-1.896 0-.832-.116-1.548-.348-2.148-.232-.6-.556-1.096-.972-1.488a3.852 3.852 0 0 0-1.476-.864 6.006 6.006 0 0 0-1.86-.276c-.672 0-1.228.076-1.668.228-.44.152-.788.292-1.044.42l.888-5.472h5.88v-1.08h-6.744l-1.272 7.464.576.432c.384-.24.82-.452 1.308-.636.488-.184 1.132-.276 1.932-.276.72 0 1.308.116 1.764.348.456.232.816.528 1.08.888.264.36.448.756.552 1.188.104.432.156.856.156 1.272a3.89 3.89 0 0 1-.288 1.524 3.379 3.379 0 0 1-.816 1.176c-.352.328-.78.584-1.284.768a4.906 4.906 0 0 1-1.692.276c-.848 0-1.572-.144-2.172-.432a9.38 9.38 0 0 1-1.572-.936l-.696.912c.48.384 1.076.736 1.788 1.056.712.32 1.588.48 2.628.48zM212.25 79.54c.92 0 1.795-.13 2.625-.39a6.3 6.3 0 0 0 2.205-1.2c.64-.54 1.15-1.23 1.53-2.07.38-.84.57-1.83.57-2.97V58.99h-4.53v13.62c0 .96-.245 1.69-.735 2.19s-1.155.75-1.995.75c-.64 0-1.235-.135-1.785-.405-.55-.27-1.095-.725-1.635-1.365l-2.94 2.79c1.56 1.98 3.79 2.97 6.69 2.97zm18.93 0c1.28 0 2.44-.2 3.48-.6 1.04-.4 1.925-.955 2.655-1.665a7.151 7.151 0 0 0 1.68-2.565c.39-1 .585-2.1.585-3.3V58.99h-4.59v11.85c0 .66-.065 1.255-.195 1.785s-.345.985-.645 1.365c-.3.38-.695.675-1.185.885-.49.21-1.085.315-1.785.315-.72 0-1.325-.105-1.815-.315a2.963 2.963 0 0 1-1.185-.885c-.3-.38-.515-.835-.645-1.365a7.507 7.507 0 0 1-.195-1.785V58.99h-4.56v12.42c0 1.2.195 2.3.585 3.3a7.3 7.3 0 0 0 1.68 2.58c.73.72 1.615 1.275 2.655 1.665 1.04.39 2.2.585 3.48.585zM247.8 79V65.77L256.68 79h4.11V58.99h-4.47v12.99l-8.67-12.99h-4.32V79h4.47zM397.652 37v-1.08h-8.088c0-.64.16-1.204.48-1.692.32-.488.784-.996 1.392-1.524.304-.272.632-.548.984-.828.352-.28.736-.588 1.152-.924.496-.4.972-.8 1.428-1.2.456-.4.864-.82 1.224-1.26.36-.44.648-.916.864-1.428.216-.512.324-1.08.324-1.704 0-.544-.092-1.052-.276-1.524a3.333 3.333 0 0 0-.84-1.236c-.376-.352-.844-.632-1.404-.84-.56-.208-1.208-.312-1.944-.312-.656 0-1.236.084-1.74.252-.504.168-.94.376-1.308.624a4.832 4.832 0 0 0-.924.792c-.248.28-.444.54-.588.78l.864.6c.16-.208.344-.428.552-.66.208-.232.456-.444.744-.636a4.156 4.156 0 0 1 1.02-.48c.392-.128.86-.192 1.404-.192.544 0 1.016.076 1.416.228.4.152.732.356.996.612s.46.552.588.888c.128.336.192.696.192 1.08 0 .48-.096.936-.288 1.368a5.727 5.727 0 0 1-.78 1.26c-.328.408-.712.812-1.152 1.212-.44.4-.908.8-1.404 1.2-.288.24-.58.476-.876.708-.296.232-.58.468-.852.708-.704.592-1.3 1.22-1.788 1.884a3.732 3.732 0 0 0-.732 2.268V37h9.36zm8.376.384c.928 0 1.72-.124 2.376-.372.656-.248 1.192-.572 1.608-.972.416-.4.716-.844.9-1.332.184-.488.276-.972.276-1.452 0-.784-.192-1.452-.576-2.004-.384-.552-.816-1-1.296-1.344-.48-.344-.924-.596-1.332-.756-.408-.16-.636-.248-.684-.264a6.952 6.952 0 0 0 1.464-.804c.4-.296.72-.612.96-.948.24-.336.412-.688.516-1.056.104-.368.156-.736.156-1.104 0-.48-.096-.932-.288-1.356a3.239 3.239 0 0 0-.84-1.116c-.368-.32-.824-.576-1.368-.768-.544-.192-1.168-.288-1.872-.288-.704 0-1.328.096-1.872.288-.544.192-1 .452-1.368.78a3.24 3.24 0 0 0-.84 1.176 3.764 3.764 0 0 0-.288 1.476c0 .512.072.956.216 1.332.144.376.348.708.612.996.264.288.576.544.936.768.36.224.756.44 1.188.648-.384.176-.796.388-1.236.636-.44.248-.844.548-1.212.9s-.676.76-.924 1.224c-.248.464-.372.992-.372 1.584 0 .48.092.964.276 1.452.184.488.484.932.9 1.332.416.4.948.724 1.596.972.648.248 1.444.372 2.388.372zm0-9c-2.144-.688-3.216-1.76-3.216-3.216 0-.816.28-1.464.84-1.944.56-.48 1.352-.72 2.376-.72 1.024 0 1.816.232 2.376.696.56.464.84 1.056.84 1.776 0 .864-.284 1.56-.852 2.088-.568.528-1.356.968-2.364 1.32zm0 7.944c-.464 0-.928-.056-1.392-.168a3.803 3.803 0 0 1-1.26-.552 3.154 3.154 0 0 1-.924-.972c-.24-.392-.36-.876-.36-1.452 0-.432.096-.84.288-1.224a3.55 3.55 0 0 1 .804-1.044 6.148 6.148 0 0 1 1.2-.84c.456-.248.948-.46 1.476-.636.528.176 1.036.388 1.524.636s.924.528 1.308.84c.384.312.688.66.912 1.044.224.384.336.792.336 1.224 0 .576-.116 1.06-.348 1.452a3.027 3.027 0 0 1-.912.972c-.376.256-.796.44-1.26.552a5.914 5.914 0 0 1-1.392.168zM396.64 79v-3.84h-7.89c0-.46.195-.91.585-1.35.39-.44.875-.89 1.455-1.35.58-.46 1.205-.945 1.875-1.455a16.52 16.52 0 0 0 1.875-1.665c.58-.6 1.06-1.26 1.44-1.98.38-.72.57-1.53.57-2.43 0-.68-.13-1.34-.39-1.98a4.838 4.838 0 0 0-1.185-1.71c-.53-.5-1.195-.905-1.995-1.215-.8-.31-1.74-.465-2.82-.465-.92 0-1.75.105-2.49.315-.74.21-1.395.49-1.965.84-.57.35-1.06.745-1.47 1.185-.41.44-.745.88-1.005 1.32l3.15 2.19c.14-.2.305-.425.495-.675a3.755 3.755 0 0 1 1.62-1.215c.35-.14.745-.21 1.185-.21.88 0 1.51.21 1.89.63.38.42.57.87.57 1.35 0 .5-.205.985-.615 1.455-.41.47-.925.95-1.545 1.44-.62.49-1.295 1.01-2.025 1.56s-1.405 1.155-2.025 1.815a9.537 9.537 0 0 0-1.545 2.19c-.41.8-.615 1.7-.615 2.7V79h12.87zm10.17.48c1.28 0 2.385-.245 3.315-.735a6.544 6.544 0 0 0 2.325-2.055c.62-.88 1.08-1.94 1.38-3.18.3-1.24.45-2.6.45-4.08 0-1.46-.15-2.8-.45-4.02-.3-1.22-.755-2.26-1.365-3.12a6.35 6.35 0 0 0-2.325-2.01c-.94-.48-2.04-.72-3.3-.72-1.24 0-2.325.24-3.255.72-.93.48-1.71 1.15-2.34 2.01-.63.86-1.1 1.9-1.41 3.12-.31 1.22-.465 2.56-.465 4.02 0 1.48.155 2.84.465 4.08.31 1.24.78 2.3 1.41 3.18a6.718 6.718 0 0 0 2.325 2.055c.92.49 2 .735 3.24.735zm.03-3.93c-.56 0-1.035-.16-1.425-.48-.39-.32-.71-.755-.96-1.305-.25-.55-.43-1.195-.54-1.935-.11-.74-.165-1.54-.165-2.4 0-.84.055-1.62.165-2.34.11-.72.29-1.345.54-1.875.25-.53.57-.945.96-1.245.39-.3.855-.45 1.395-.45s1.005.15 1.395.45c.39.3.71.715.96 1.245.25.53.435 1.155.555 1.875.12.72.18 1.5.18 2.34 0 .86-.055 1.66-.165 2.4-.11.74-.29 1.385-.54 1.935-.25.55-.57.985-.96 1.305-.39.32-.855.48-1.395.48zm22.5 3.45v-3.84h-7.89c0-.46.195-.91.585-1.35.39-.44.875-.89 1.455-1.35.58-.46 1.205-.945 1.875-1.455a16.52 16.52 0 0 0 1.875-1.665c.58-.6 1.06-1.26 1.44-1.98.38-.72.57-1.53.57-2.43 0-.68-.13-1.34-.39-1.98a4.838 4.838 0 0 0-1.185-1.71c-.53-.5-1.195-.905-1.995-1.215-.8-.31-1.74-.465-2.82-.465-.92 0-1.75.105-2.49.315-.74.21-1.395.49-1.965.84-.57.35-1.06.745-1.47 1.185-.41.44-.745.88-1.005 1.32l3.15 2.19c.14-.2.305-.425.495-.675a3.755 3.755 0 0 1 1.62-1.215c.35-.14.745-.21 1.185-.21.88 0 1.51.21 1.89.63.38.42.57.87.57 1.35 0 .5-.205.985-.615 1.455-.41.47-.925.95-1.545 1.44-.62.49-1.295 1.01-2.025 1.56s-1.405 1.155-2.025 1.815a9.537 9.537 0 0 0-1.545 2.19c-.41.8-.615 1.7-.615 2.7V79h12.87zm10.17.48c1.28 0 2.385-.245 3.315-.735a6.544 6.544 0 0 0 2.325-2.055c.62-.88 1.08-1.94 1.38-3.18.3-1.24.45-2.6.45-4.08 0-1.46-.15-2.8-.45-4.02-.3-1.22-.755-2.26-1.365-3.12a6.35 6.35 0 0 0-2.325-2.01c-.94-.48-2.04-.72-3.3-.72-1.24 0-2.325.24-3.255.72-.93.48-1.71 1.15-2.34 2.01-.63.86-1.1 1.9-1.41 3.12-.31 1.22-.465 2.56-.465 4.02 0 1.48.155 2.84.465 4.08.31 1.24.78 2.3 1.41 3.18a6.718 6.718 0 0 0 2.325 2.055c.92.49 2 .735 3.24.735zm.03-3.93c-.56 0-1.035-.16-1.425-.48-.39-.32-.71-.755-.96-1.305-.25-.55-.43-1.195-.54-1.935-.11-.74-.165-1.54-.165-2.4 0-.84.055-1.62.165-2.34.11-.72.29-1.345.54-1.875.25-.53.57-.945.96-1.245.39-.3.855-.45 1.395-.45s1.005.15 1.395.45c.39.3.71.715.96 1.245.25.53.435 1.155.555 1.875.12.72.18 1.5.18 2.34 0 .86-.055 1.66-.165 2.4-.11.74-.29 1.385-.54 1.935-.25.55-.57.985-.96 1.305-.39.32-.855.48-1.395.48zM249.652 37v-1.08h-8.088c0-.64.16-1.204.48-1.692.32-.488.784-.996 1.392-1.524.304-.272.632-.548.984-.828.352-.28.736-.588 1.152-.924.496-.4.972-.8 1.428-1.2.456-.4.864-.82 1.224-1.26.36-.44.648-.916.864-1.428.216-.512.324-1.08.324-1.704 0-.544-.092-1.052-.276-1.524a3.333 3.333 0 0 0-.84-1.236c-.376-.352-.844-.632-1.404-.84-.56-.208-1.208-.312-1.944-.312-.656 0-1.236.084-1.74.252-.504.168-.94.376-1.308.624a4.832 4.832 0 0 0-.924.792c-.248.28-.444.54-.588.78l.864.6c.16-.208.344-.428.552-.66.208-.232.456-.444.744-.636a4.156 4.156 0 0 1 1.02-.48c.392-.128.86-.192 1.404-.192.544 0 1.016.076 1.416.228.4.152.732.356.996.612s.46.552.588.888c.128.336.192.696.192 1.08 0 .48-.096.936-.288 1.368a5.727 5.727 0 0 1-.78 1.26c-.328.408-.712.812-1.152 1.212-.44.4-.908.8-1.404 1.2-.288.24-.58.476-.876.708-.296.232-.58.468-.852.708-.704.592-1.3 1.22-1.788 1.884a3.732 3.732 0 0 0-.732 2.268V37h9.36zm8.808.384c.528 0 1.068-.096 1.62-.288a4.538 4.538 0 0 0 1.512-.888c.456-.4.828-.904 1.116-1.512.288-.608.432-1.328.432-2.16 0-1.6-.388-2.832-1.164-3.696-.776-.864-1.916-1.296-3.42-1.296-.512 0-.98.044-1.404.132a5.98 5.98 0 0 0-1.14.348c-.336.144-.632.3-.888.468a5.24 5.24 0 0 0-.648.492c.048-.832.172-1.636.372-2.412s.492-1.46.876-2.052a4.42 4.42 0 0 1 1.464-1.416c.592-.352 1.304-.528 2.136-.528.608 0 1.12.092 1.536.276.416.184.736.364.96.54l.6-.888c-.24-.208-.62-.428-1.14-.66-.52-.232-1.14-.348-1.86-.348-1.952 0-3.46.748-4.524 2.244-1.064 1.496-1.596 3.716-1.596 6.66 0 1.072.096 2.036.288 2.892.192.856.492 1.588.9 2.196.408.608.94 1.076 1.596 1.404.656.328 1.448.492 2.376.492zm-.072-1.08c-.736 0-1.352-.148-1.848-.444a3.585 3.585 0 0 1-1.212-1.188 5.205 5.205 0 0 1-.672-1.692 9.272 9.272 0 0 1-.204-1.956v-.456c0-.128.008-.232.024-.312a5.168 5.168 0 0 1 1.704-1.176c.64-.272 1.368-.408 2.184-.408.752 0 1.364.104 1.836.312.472.208.84.488 1.104.84.264.352.444.764.54 1.236.096.472.144.972.144 1.5 0 .64-.116 1.196-.348 1.668-.232.472-.52.86-.864 1.164a3.52 3.52 0 0 1-1.152.684 3.652 3.652 0 0 1-1.236.228zM432.652 37v-1.08h-8.088c0-.64.16-1.204.48-1.692.32-.488.784-.996 1.392-1.524.304-.272.632-.548.984-.828.352-.28.736-.588 1.152-.924.496-.4.972-.8 1.428-1.2.456-.4.864-.82 1.224-1.26.36-.44.648-.916.864-1.428.216-.512.324-1.08.324-1.704 0-.544-.092-1.052-.276-1.524a3.333 3.333 0 0 0-.84-1.236c-.376-.352-.844-.632-1.404-.84-.56-.208-1.208-.312-1.944-.312-.656 0-1.236.084-1.74.252-.504.168-.94.376-1.308.624a4.832 4.832 0 0 0-.924.792c-.248.28-.444.54-.588.78l.864.6c.16-.208.344-.428.552-.66.208-.232.456-.444.744-.636a4.156 4.156 0 0 1 1.02-.48c.392-.128.86-.192 1.404-.192.544 0 1.016.076 1.416.228.4.152.732.356.996.612s.46.552.588.888c.128.336.192.696.192 1.08 0 .48-.096.936-.288 1.368a5.727 5.727 0 0 1-.78 1.26c-.328.408-.712.812-1.152 1.212-.44.4-.908.8-1.404 1.2-.288.24-.58.476-.876.708-.296.232-.58.468-.852.708-.704.592-1.3 1.22-1.788 1.884a3.732 3.732 0 0 0-.732 2.268V37h9.36zm6.888.336c1.952 0 3.46-.748 4.524-2.244 1.064-1.496 1.596-3.716 1.596-6.66 0-1.072-.096-2.036-.288-2.892-.192-.856-.492-1.588-.9-2.196a4.097 4.097 0 0 0-1.596-1.404c-.656-.328-1.448-.492-2.376-.492-.528 0-1.068.096-1.62.288a4.538 4.538 0 0 0-1.512.888c-.456.4-.828.904-1.116 1.512-.288.608-.432 1.328-.432 2.16 0 1.6.388 2.832 1.164 3.696.776.864 1.916 1.296 3.42 1.296.512 0 .98-.044 1.404-.132a5.98 5.98 0 0 0 1.14-.348c.336-.144.632-.3.888-.468a5.24 5.24 0 0 0 .648-.492 12.373 12.373 0 0 1-.372 2.424 6.927 6.927 0 0 1-.876 2.04 4.42 4.42 0 0 1-1.464 1.416c-.592.352-1.304.528-2.136.528-.608 0-1.12-.092-1.536-.276-.416-.184-.736-.364-.96-.54l-.6.888c.24.208.62.428 1.14.66.52.232 1.14.348 1.86.348zm1.056-7.176c-.752 0-1.364-.104-1.836-.312-.472-.208-.84-.488-1.104-.84a3.038 3.038 0 0 1-.54-1.236 7.516 7.516 0 0 1-.144-1.5c0-.64.116-1.196.348-1.668.232-.472.52-.86.864-1.164a3.52 3.52 0 0 1 1.152-.684 3.652 3.652 0 0 1 1.236-.228c.736 0 1.352.148 1.848.444.496.296.9.692 1.212 1.188.312.496.536 1.06.672 1.692.136.632.204 1.284.204 1.956v.456c0 .128-.008.232-.024.312a5.168 5.168 0 0 1-1.704 1.176c-.64.272-1.368.408-2.184.408z" fill="#343633" fill-rule="nonzero"/><rect fill="url(#a)" y="48" width="267" height="2" rx="1"/><rect fill="url(#b)" x="382" y="48" width="267" height="2" rx="1"/></g></svg>