<?xml version="1.0" encoding="UTF-8"?>
<svg width="48px" height="48px" viewBox="0 0 48 48" version="1.1" xmlns="http://www.w3.org/2000/svg" xmlns:xlink="http://www.w3.org/1999/xlink">
    <!-- Generator: Sketch 60 (88103) - https://sketch.com -->
    <title>i--car</title>
    <desc>Created with Sketch.</desc>
    <g id="i--car" stroke="none" stroke-width="1" fill="none" fill-rule="evenodd">
        <path d="M15.8095238,21.2857143 C16.2992169,20.2118888 16.7583041,19.1073826 17.3704204,17.8801534 C17.7070843,17.2972196 18.0743541,16.7756472 18.7476821,16.7142857 L29.0618417,16.7142857 C29.7351697,16.7756472 30.1024395,17.2972196 30.4391034,17.8801534 C31.0512197,19.1073826 31.510307,20.2118888 32,21.2857143 L15.8095238,21.2857143 Z M20.6961979,25.4761905 L27.113326,25.4761905 C27.5068291,25.4761905 27.8095238,25.8328267 27.8095238,26.254306 C27.8095238,26.6433637 27.5068291,27 27.113326,27 L20.6961979,27 C20.3329642,27 20,26.6433637 20,26.254306 C20,25.8328267 20.3329642,25.4761905 20.6961979,25.4761905 Z M18.8804612,15 C17.7850521,15 17.1156353,15.3961905 16.2027944,16.6761905 L14.6813927,20.12 L12.3688623,20.12 C12.0037259,20.12 11.3343092,22.0095238 13.7685518,22.0704762 L12.9469949,24.0514286 C12.9774229,26.5809524 12.9774229,29.08 12.9774229,31.5790476 C12.9774229,32.0971429 13.4034154,32.5238095 13.9206919,32.5238095 L17.0852073,32.5238095 C17.6024839,32.5238095 17.9980483,32.0971429 17.9980483,31.5790476 L17.9980483,29.5066667 L29.9866931,29.5066667 L29.9866931,31.5790476 C29.9866931,32.0971429 30.4126855,32.5238095 30.9299621,32.5238095 L34.0944775,32.5238095 C34.611754,32.5238095 35.0073185,32.0971429 35.0073185,31.5790476 C35.0073185,29.08 35.0377465,26.5809524 35.0377465,24.0514286 L34.2161896,22.0704762 C36.6808602,22.0095238 35.9810155,20.12 35.6463071,20.12 L33.3337767,20.12 L31.812375,16.6761905 C30.8995341,15.3961905 30.2301174,15 29.1347082,15 L18.8804612,15 Z M31.6190476,24.1428571 C30.7961905,24.1428571 30.0952381,24.8133333 30.0952381,25.6666667 C30.0952381,26.4895238 30.7961905,27.1904762 31.6190476,27.1904762 C32.472381,27.1904762 33.1428571,26.4895238 33.1428571,25.6666667 C33.1428571,24.8133333 32.472381,24.1428571 31.6190476,24.1428571 Z M16.3809524,24.1428571 C17.2038095,24.1428571 17.9047619,24.8133333 17.9047619,25.6666667 C17.9047619,26.4895238 17.2038095,27.1904762 16.3809524,27.1904762 C15.527619,27.1904762 14.8571429,26.4895238 14.8571429,25.6666667 C14.8571429,24.8133333 15.527619,24.1428571 16.3809524,24.1428571 Z" id="Shape" fill="#1A1D19"></path>
    </g>
</svg>