<svg xmlns="http://www.w3.org/2000/svg" xmlns:xlink="http://www.w3.org/1999/xlink" version="1.1" x="0px" y="0px" width="24" viewBox="0 0 100 125" style="enable-background:new 0 0 100 100;" xml:space="preserve"><style type="text/css">
	.st0{fill:none;stroke:#B52828;stroke-width:2;stroke-linecap:round;stroke-miterlimit:10;}
</style><g><path d="M50,11.3c-16.5,0-30,13.5-30,30c0,12.9,18,37.4,25.7,47.4c1,1.3,2.6,2.1,4.3,2.1s3.2-0.8,4.2-2.1C62,78.7,80,54.2,80,41.3   C80,24.8,66.5,11.3,50,11.3z M50,52.4c-6.9,0-12.4-5.6-12.4-12.4c0-6.9,5.6-12.4,12.4-12.4s12.4,5.6,12.4,12.4   C62.4,46.8,56.9,52.4,50,52.4z"/></g></svg>
