<?xml version="1.0" encoding="UTF-8"?>
<svg width="48px" height="48px" viewBox="0 0 48 48" version="1.1" xmlns="http://www.w3.org/2000/svg" xmlns:xlink="http://www.w3.org/1999/xlink">
    <!-- Generator: Sketch 60 (88103) - https://sketch.com -->
    <title>i--plane</title>
    <desc>Created with Sketch.</desc>
    <g id="i--plane" stroke="none" stroke-width="1" fill="none" fill-rule="evenodd">
        <path d="M33.7948116,16.5155906 C34.1247251,15.5918328 34.0587424,14.866023 33.6628462,14.4041441 C33.1349845,13.9422651 32.4751575,13.8762824 31.5513996,14.206196 C30.6276417,14.5361095 29.7698666,14.9979884 29.0440568,15.7237982 L26.8006448,18.0331929 L17.2991353,15.7897809 C17.1671699,15.7237982 17.0352044,15.7237982 16.903239,15.8557636 L15.0557233,17.7032793 C14.9237579,17.8352447 14.9237579,17.9672102 14.9237579,18.0991756 C14.9237579,18.231141 15.0557233,18.3631064 15.1876887,18.4290891 L22.4457863,22.3880514 L18.7507548,26.0830829 L15.9794812,25.3572732 C15.9134985,25.3572732 15.9134985,25.3572732 15.8475157,25.3572732 C15.7155503,25.3572732 15.5835849,25.3572732 15.5176022,25.4892386 L14.1319654,26.8748754 C14.0659827,26.9408581 14,27.0728235 14,27.2047889 C14,27.3367543 14.0659827,27.4687197 14.1979481,27.5347024 L17.7610142,30.2399933 L20.4663051,33.8030594 C20.5982705,33.9350248 20.6642532,34.0010075 20.8622014,34.0010075 L20.8622014,34.0010075 C20.9941668,34.0010075 21.1261322,34.0010075 21.1921149,33.8690421 L22.5777517,32.4834053 C22.7097171,32.3514399 22.7097171,32.2194745 22.6437344,32.0875091 L21.9179246,29.3162355 L25.6129561,25.621204 L29.5719185,32.8793016 C29.6379012,33.011267 29.7698666,33.0772497 29.901832,33.0772497 C29.901832,33.0772497 29.9678147,33.0772497 29.9678147,33.0772497 C30.0997801,33.0772497 30.1657628,33.0772497 30.2317455,33.011267 L32.0792613,31.6256302 C32.2772094,31.4936647 32.2772094,31.3616993 32.2772094,31.1637512 L29.9678147,21.2663454 L32.2772094,18.9569507 C33.0030191,18.231141 33.5308808,17.4393485 33.7948116,16.5155906 Z" id="Path" fill="#1A1D19"></path>
    </g>
</svg>