<?xml version="1.0" encoding="UTF-8"?>
<svg width="48px" height="48px" viewBox="0 0 48 48" version="1.1" xmlns="http://www.w3.org/2000/svg" xmlns:xlink="http://www.w3.org/1999/xlink">
    <!-- Generator: Sketch 60 (88103) - https://sketch.com -->
    <title>i--train</title>
    <desc>Created with Sketch.</desc>
    <g id="i--train" stroke="none" stroke-width="1" fill="none" fill-rule="evenodd">
        <path d="M29.3160016,14.7289573 C28.8780074,14.5894843 28.4498009,14.4671396 28.026488,14.3594762 L28.026488,12.9965558 C28.0279716,12.656521 27.783996,12.3649909 27.4490209,12.3065314 C24.9682781,11.8978229 22.4373717,11.8978229 19.9566289,12.3065314 C19.6206806,12.3639297 19.3754343,12.6557418 19.3767149,12.9965558 L19.3767149,14.3594762 C18.953402,14.4671396 18.5251955,14.5894843 18.0872013,14.7289573 C16.8392849,15.1278012 16,16.29497 16,17.8365137 L16,28.9723321 C16,28.8132839 16,28.8866908 16,28.9576507 C16.1174171,30.2666755 17.0985465,31.33408 18.3930631,31.5611468 L16.6312989,34.4166731 C16.4440449,34.7551216 16.4546482,35.1684129 16.6590108,35.4968141 C16.8633734,35.8252153 17.2294796,36.0172788 17.6158331,35.998774 C18.0021866,35.9802691 18.3482608,35.754095 18.5203017,35.4076655 L19.1124502,34.5292302 L28.2956465,34.5292302 L28.887795,35.4076655 C29.1685677,35.9151425 29.8033212,36.1053572 30.3169084,35.8359235 C30.8304956,35.5664898 31.0347596,34.936117 30.7767978,34.4166731 L29.0125867,31.5611468 C30.3032595,31.330129 31.2795165,30.2636635 31.3959094,28.9576507 C31.3959094,28.8866908 31.3959094,28.8132839 31.3959094,28.9723321 L31.3959094,17.8365137 C31.4032029,16.29497 30.5541304,15.1278012 29.3160016,14.7289573 Z M21.5715795,14.7093822 C21.5781124,14.5510535 21.7001837,14.4216788 21.8578662,14.4059672 C23.0820715,14.2259448 24.3260252,14.2259448 25.5502305,14.4059672 C25.707913,14.4216788 25.8299843,14.5510535 25.8365172,14.7093822 L25.8365172,15.9572985 C25.8260041,16.1361744 25.6728715,16.2728998 25.4939519,16.2631604 L21.9141448,16.2631604 C21.7352252,16.2728998 21.5820926,16.1361744 21.5715795,15.9572985 L21.5715795,14.7093822 Z M18.5839209,27.2448243 C18.5839209,26.4339947 19.2412282,25.7766874 20.0520578,25.7766874 C20.8628874,25.7766874 21.5201947,26.4339947 21.5201947,27.2448243 C21.5201947,28.0556539 20.8628874,28.7129612 20.0520578,28.7129612 C19.2412282,28.7129612 18.5839209,28.0556539 18.5839209,27.2448243 L18.5839209,27.2448243 Z M20.0080137,32.8237445 L20.7665511,31.6174254 L26.6390987,31.6174254 L27.3976361,32.8237445 L20.0080137,32.8237445 Z M27.3486982,28.7056205 C26.5378686,28.7056205 25.8805613,28.0483133 25.8805613,27.2374836 C25.8805613,26.426654 26.5378686,25.7693468 27.3486982,25.7693468 C28.1595278,25.7693468 28.8168372,26.426654 28.8168372,27.2374836 C28.8181997,28.0454604 28.1664457,28.7026821 27.3584858,28.7080674 L27.3486982,28.7056205 Z M28.9244984,19.3780575 L28.0411694,23.1731913 C27.9770011,23.4594282 27.7227869,23.6627996 27.4294457,23.6625705 L19.978651,23.6625705 C19.6853098,23.6627996 19.4310956,23.4594282 19.3669273,23.1731913 L18.4713638,19.3805044 C18.4334064,19.2112994 18.4745217,19.0340168 18.5830822,18.8987922 C18.6916428,18.7635676 18.8558463,18.6851023 19.0292558,18.685584 L28.376394,18.685584 C28.5498035,18.6851023 28.714007,18.7635676 28.8225675,18.8987922 C28.9311281,19.0340168 28.9722434,19.2112994 28.934286,19.3805044 L28.9244984,19.3780575 Z" id="Shape" fill="#1A1D19" fill-rule="nonzero"></path>
    </g>
</svg>