<?xml version="1.0" encoding="UTF-8"?>
<svg viewBox="0 0 200 96" version="1.1" xmlns="http://www.w3.org/2000/svg" xmlns:xlink="http://www.w3.org/1999/xlink">
    <polygon id="berg--hinten" stroke="#C2D6C8" points="79.628 32 118.628 71 40.628 71"></polygon>
    <polygon id="berg--abdeckung" fill="#FFFFFF" points="109.628 33 148.628 72 70.628 72"></polygon>
    <polygon id="berg--vorne" stroke="#89A491" points="119.628 32 158.628 71 80.628 71"></polygon>
    <path d="M103.234986,4.78566032 C108.948521,-0.928866062 118.211488,-0.928866062 123.866737,4.78753605 C127.785834,8.74901308 129.105548,14.5436309 127.396332,19.7235293 C127.309802,19.9857643 127.027072,20.1282013 126.764837,20.0416714 C126.502602,19.9551414 126.360165,19.6724116 126.446695,19.4101767 C128.038975,14.5846626 126.80883,9.18332386 123.155838,5.49083006 C117.972338,0.251278682 109.529171,0.170670199 104.190124,5.2507951 L103.942154,5.49270579 L99.6388763,9.79672937 L95.3337334,5.49083006 C90.0890481,0.189431046 81.4612783,0.206793754 76.118174,5.49457163 C72.7697728,8.80830104 71.4376519,13.5709147 72.4667005,18.1039655 C72.5278322,18.3732563 72.359086,18.6411167 72.0897952,18.7022484 C71.8205044,18.7633802 71.552644,18.5946339 71.4915123,18.3253432 C70.3869044,13.459447 71.8178725,8.34343394 75.4147568,4.78379448 C81.062582,-0.805549103 90.1335006,-0.907057012 95.7881157,4.53449913 L96.042767,4.78566032 L99.638,8.382 L103.234986,4.78566032 Z" id="herz" fill="#F4CCB0" fill-rule="nonzero"></path>
    <path d="M37.242,95 L37.242,94.235 L30.816,94.235 L30.816,83.661 L30,83.661 L30,95 L37.242,95 Z M46.75,95.272 C47.5773333,95.272 48.2686667,95.1473333 48.824,94.898 C49.3793333,94.6486667 49.8241667,94.3086667 50.1585,93.878 C50.4928333,93.4473333 50.7308333,92.9401667 50.8725,92.3565 C51.0141667,91.7728333 51.085,91.1466667 51.085,90.478 L51.085,90.478 L51.085,83.661 L50.269,83.661 L50.269,90.053 C50.269,90.699 50.218,91.294 50.116,91.838 C50.014,92.382 49.8298333,92.8523333 49.5635,93.249 C49.2971667,93.6456667 48.9373333,93.9545 48.484,94.1755 C48.0306667,94.3965 47.4526667,94.507 46.75,94.507 C46.0473333,94.507 45.4693333,94.3965 45.016,94.1755 C44.5626667,93.9545 44.2028333,93.6456667 43.9365,93.249 C43.6701667,92.8523333 43.486,92.382 43.384,91.838 C43.282,91.294 43.231,90.699 43.231,90.053 L43.231,90.053 L43.231,83.661 L42.415,83.661 L42.415,90.478 C42.415,91.1466667 42.4858333,91.7728333 42.6275,92.3565 C42.7691667,92.9401667 43.0071667,93.4473333 43.3415,93.878 C43.6758333,94.3086667 44.1206667,94.6486667 44.676,94.898 C45.2313333,95.1473333 45.9226667,95.272 46.75,95.272 Z M58.74,95 L58.74,89.475 L63.415,89.475 L63.415,88.71 L58.74,88.71 L58.74,84.426 L64.724,84.426 L64.724,83.661 L57.924,83.661 L57.924,95 L58.74,95 Z M75.32,95 L75.32,84.392 L79.723,84.392 L79.723,83.661 L70.101,83.661 L70.101,84.392 L74.504,84.392 L74.504,95 L75.32,95 Z M95.373,95.272 C95.781,95.272 96.155,95.221 96.495,95.119 C96.835,95.017 97.1495,94.881 97.4385,94.711 C97.7275,94.541 97.991,94.3455 98.229,94.1245 C98.467,93.9035 98.6936667,93.6683333 98.909,93.419 L98.909,93.419 L100.371,95 L101.391,95 L99.402,92.79 L101.017,90.631 L100.405,90.189 L98.892,92.229 L95.186,88.115 C94.7893333,87.6616667 94.4946667,87.2536667 94.302,86.891 C94.1093333,86.5283333 94.013,86.1543333 94.013,85.769 C94.013,85.565 94.0526667,85.361 94.132,85.157 C94.2113333,84.953 94.3275,84.7745 94.4805,84.6215 C94.6335,84.4685 94.8261667,84.3438333 95.0585,84.2475 C95.2908333,84.1511667 95.56,84.103 95.866,84.103 C96.2966667,84.103 96.6763333,84.1993333 97.005,84.392 C97.3336667,84.5846667 97.6453333,84.9756667 97.94,85.565 L97.94,85.565 L98.535,85.208 C98.2403333,84.5733333 97.889,84.1115 97.481,83.8225 C97.073,83.5335 96.5233333,83.389 95.832,83.389 C95.4013333,83.389 95.0216667,83.457 94.693,83.593 C94.3643333,83.729 94.0895,83.9103333 93.8685,84.137 C93.6475,84.3636667 93.4775,84.6215 93.3585,84.9105 C93.2395,85.1995 93.18,85.4913333 93.18,85.786 C93.18,86.228 93.2621667,86.6331667 93.4265,87.0015 C93.5908333,87.3698333 93.7976667,87.707 94.047,88.013 L94.047,88.013 L94.523,88.608 C93.7863333,89.0726667 93.1856667,89.594 92.721,90.172 C92.2563333,90.75 92.024,91.447 92.024,92.263 C92.024,92.6823333 92.1005,93.0761667 92.2535,93.4445 C92.4065,93.8128333 92.6275,94.133 92.9165,94.405 C93.2055,94.677 93.5568333,94.8895 93.9705,95.0425 C94.3841667,95.1955 94.8516667,95.272 95.373,95.272 Z M95.424,94.507 C95.0273333,94.507 94.6731667,94.4475 94.3615,94.3285 C94.0498333,94.2095 93.7863333,94.048 93.571,93.844 C93.3556667,93.64 93.1913333,93.3991667 93.078,93.1215 C92.9646667,92.8438333 92.908,92.5463333 92.908,92.229 C92.908,91.5376667 93.0865,90.9625 93.4435,90.5035 C93.8005,90.0445 94.3303333,89.5996667 95.033,89.169 L95.033,89.169 L98.399,92.858 C98.2176667,93.0733333 98.025,93.2801667 97.821,93.4785 C97.617,93.6768333 97.396,93.8525 97.158,94.0055 C96.92,94.1585 96.6565,94.2803333 96.3675,94.371 C96.0785,94.4616667 95.764,94.507 95.424,94.507 Z M121.597,95 L121.597,94.235 L115.171,94.235 L115.171,83.661 L114.355,83.661 L114.355,95 L121.597,95 Z M128.351,95 L128.351,83.661 L127.535,83.661 L127.535,95 L128.351,95 Z M142.517,95 L142.517,94.235 L136.091,94.235 L136.091,89.475 L140.766,89.475 L140.766,88.71 L136.091,88.71 L136.091,84.426 L142.075,84.426 L142.075,83.661 L135.275,83.661 L135.275,95 L142.517,95 Z M151.991,95 C152.569,95 153.115833,94.9546667 153.6315,94.864 C154.147167,94.7733333 154.6005,94.6118333 154.9915,94.3795 C155.3825,94.1471667 155.691333,93.8355 155.918,93.4445 C156.144667,93.0535 156.258,92.552 156.258,91.94 C156.258,91.4186667 156.173,90.9823333 156.003,90.631 C155.833,90.2796667 155.617667,89.9935 155.357,89.7725 C155.096333,89.5515 154.807333,89.3843333 154.49,89.271 C154.172667,89.1576667 153.866667,89.0783333 153.572,89.033 C153.878,88.9763333 154.155667,88.8686667 154.405,88.71 C154.654333,88.5513333 154.866833,88.3558333 155.0425,88.1235 C155.218167,87.8911667 155.357,87.6333333 155.459,87.35 C155.561,87.0666667 155.612,86.7663333 155.612,86.449 C155.612,86.075 155.555333,85.7208333 155.442,85.3865 C155.328667,85.0521667 155.147333,84.7575 154.898,84.5025 C154.648667,84.2475 154.325667,84.0435 153.929,83.8905 C153.532333,83.7375 153.056333,83.661 152.501,83.661 L152.501,83.661 L148.744,83.661 L148.744,95 L151.991,95 Z M152.042,88.71 L149.56,88.71 L149.56,84.426 L152.042,84.426 C152.359333,84.426 152.6795,84.4486667 153.0025,84.494 C153.3255,84.5393333 153.617333,84.6356667 153.878,84.783 C154.138667,84.9303333 154.351167,85.14 154.5155,85.412 C154.679833,85.684 154.762,86.0466667 154.762,86.5 C154.762,86.8966667 154.677,87.2338333 154.507,87.5115 C154.337,87.7891667 154.121667,88.0186667 153.861,88.2 C153.600333,88.3813333 153.3085,88.5116667 152.9855,88.591 C152.6625,88.6703333 152.348,88.71 152.042,88.71 L152.042,88.71 Z M151.787,94.235 L149.56,94.235 L149.56,89.475 L152.059,89.475 C152.433,89.475 152.818333,89.509 153.215,89.577 C153.611667,89.645 153.9715,89.7668333 154.2945,89.9425 C154.6175,90.1181667 154.883833,90.3675 155.0935,90.6905 C155.303167,91.0135 155.408,91.43 155.408,91.94 C155.408,92.4726667 155.300333,92.892 155.085,93.198 C154.869667,93.504 154.589167,93.7335 154.2435,93.8865 C153.897833,94.0395 153.509667,94.1358333 153.079,94.1755 C152.648333,94.2151667 152.217667,94.235 151.787,94.235 L151.787,94.235 Z M169.863,95 L169.863,94.235 L163.437,94.235 L163.437,89.475 L168.112,89.475 L168.112,88.71 L163.437,88.71 L163.437,84.426 L169.421,84.426 L169.421,83.661 L162.621,83.661 L162.621,95 L169.863,95 Z" id="claim" fill="#3C403C" fill-rule="nonzero"></path>
</svg>
